# xmcd
#
# Track frame offsets: 
#        150
#        16045
#        37802
#        57169
#        69086
#        88050
#        106921
#        122259
#        139679
#        166416
#        180866
#
# Disc length: 2591 seconds
#
# Revision: 2
# Processed by: cddbd v1.5.2PL0 Copyright (c) Steve Scherf et al.
# Submitted via: ExactAudioCopy v0.99pb4
#
DISCID=750a1d0b
DTITLE=Debbie Davies - Holdin' Court
DYEAR=2009
DGENRE=Modern Electric Blues
TTITLE0=Fishnet
TTITLE1=Down at the Honky Shack
TTITLE2=Tryin' to Keep It Real
TTITLE3=Okie Dokie Stomp
TTITLE4=Percolatin'
TTITLE5=So What
TTITLE6=Atras de Tus Ojos
TTITLE7=Holdin' Court
TTITLE8=I Wonder Why (Blues in D Natural)
TTITLE9=If You Love Me like You Say
TTITLE10=Zoom-in'
EXTD=Debbie Davies: guitar\nCassandra Faulconer (ex track 3): bass gui
EXTD=tar\nDan Castagno: congas (8), drums\nPaul Opalach: organ, bass (
EXTD=3), 2nd guitar (11]\nRecorded by Paul Opalach at Longhill Recordi
EXTD=ng Studio, Shelton US-CT.\nProduced by Debbie Davies and Paul Opa
EXTD=lach.\nCD: VizzTone/Little Dipper LDIP001 (2009-10-27), UPC 63445
EXTD=7518728.
EXTT0=(Duke Robillard)
EXTT1=(Billy Butler/Bill Doggett/Clifford Scott/Berisford "Shep" Sheph
EXTT1=erd]\nOriginally entitled "Honky Tonk".
EXTT2=(Debbie Davies)
EXTT3=(Pluma Davis)
EXTT4=(Debbie Davies)
EXTT5=(Debbie Davies)
EXTT6=(Debbie Davies)
EXTT7=(Debbie Davies/Dan Castagno)
EXTT8=(Earl Hooker/Mel London]\nOriginally entitled "Blues in D Natura
EXTT8=l".
EXTT9=(Little Johnny Taylor)
EXTT10=(Debbie Davies)
PLAYORDER=
